<svg xmlns="http://www.w3.org/2000/svg" viewBox="0 0 32 32" fill="none">
  <rect width="32" height="32" rx="6" fill="#0a0a0b"/>
  <g fill="#6466f1" transform="translate(16 16) scale(0.9)">
    <path d="M0 -12 L2.4 -6.3 L5.5 -3.5 L3 -3.9 L1.3 -5.4 L1.9 0.1 L0 2.5 L-1.9 0.1 L-1.3 -5.4 L-3 -3.9 L-5.5 -3.5 L-2.4 -6.3 Z"/>
    <path d="M0 -12 L2.4 -6.3 L5.5 -3.5 L3 -3.9 L1.3 -5.4 L1.9 0.1 L0 2.5 L-1.9 0.1 L-1.3 -5.4 L-3 -3.9 L-5.5 -3.5 L-2.4 -6.3 Z" transform="rotate(60)"/>
    <path d="M0 -12 L2.4 -6.3 L5.5 -3.5 L3 -3.9 L1.3 -5.4 L1.9 0.1 L0 2.5 L-1.9 0.1 L-1.3 -5.4 L-3 -3.9 L-5.5 -3.5 L-2.4 -6.3 Z" transform="rotate(120)"/>
    <path d="M0 -12 L2.4 -6.3 L5.5 -3.5 L3 -3.9 L1.3 -5.4 L1.9 0.1 L0 2.5 L-1.9 0.1 L-1.3 -5.4 L-3 -3.9 L-5.5 -3.5 L-2.4 -6.3 Z" transform="rotate(180)"/>
    <path d="M0 -12 L2.4 -6.3 L5.5 -3.5 L3 -3.9 L1.3 -5.4 L1.9 0.1 L0 2.5 L-1.9 0.1 L-1.3 -5.4 L-3 -3.9 L-5.5 -3.5 L-2.4 -6.3 Z" transform="rotate(240)"/>
    <path d="M0 -12 L2.4 -6.3 L5.5 -3.5 L3 -3.9 L1.3 -5.4 L1.9 0.1 L0 2.5 L-1.9 0.1 L-1.3 -5.4 L-3 -3.9 L-5.5 -3.5 L-2.4 -6.3 Z" transform="rotate(300)"/>
  </g>
</svg>
