<svg xmlns="http://www.w3.org/2000/svg" viewBox="0 0 210 28" fill="none" role="img" aria-label="JouleBridge logo">
  <g fill="currentColor" transform="translate(12 14)">
    <path d="M0 -12 L2.4 -6.3 L5.5 -3.5 L3 -3.9 L1.3 -5.4 L1.9 0.1 L0 2.5 L-1.9 0.1 L-1.3 -5.4 L-3 -3.9 L-5.5 -3.5 L-2.4 -6.3 Z"/>
    <path d="M0 -12 L2.4 -6.3 L5.5 -3.5 L3 -3.9 L1.3 -5.4 L1.9 0.1 L0 2.5 L-1.9 0.1 L-1.3 -5.4 L-3 -3.9 L-5.5 -3.5 L-2.4 -6.3 Z" transform="rotate(60)"/>
    <path d="M0 -12 L2.4 -6.3 L5.5 -3.5 L3 -3.9 L1.3 -5.4 L1.9 0.1 L0 2.5 L-1.9 0.1 L-1.3 -5.4 L-3 -3.9 L-5.5 -3.5 L-2.4 -6.3 Z" transform="rotate(120)"/>
    <path d="M0 -12 L2.4 -6.3 L5.5 -3.5 L3 -3.9 L1.3 -5.4 L1.9 0.1 L0 2.5 L-1.9 0.1 L-1.3 -5.4 L-3 -3.9 L-5.5 -3.5 L-2.4 -6.3 Z" transform="rotate(180)"/>
    <path d="M0 -12 L2.4 -6.3 L5.5 -3.5 L3 -3.9 L1.3 -5.4 L1.9 0.1 L0 2.5 L-1.9 0.1 L-1.3 -5.4 L-3 -3.9 L-5.5 -3.5 L-2.4 -6.3 Z" transform="rotate(240)"/>
    <path d="M0 -12 L2.4 -6.3 L5.5 -3.5 L3 -3.9 L1.3 -5.4 L1.9 0.1 L0 2.5 L-1.9 0.1 L-1.3 -5.4 L-3 -3.9 L-5.5 -3.5 L-2.4 -6.3 Z" transform="rotate(300)"/>
  </g>
  <text x="34" y="21" fill="currentColor" font-family="Segoe UI, Arial, sans-serif" font-size="20" font-weight="700" letter-spacing="1.8">JOULEBRIDGE</text>
</svg>
